#!OML:ASF F:\VICON\USERDATA\INSTALL\rory3\rory3.ASF
:FULLY-SPECIFIED
:DEGREES
579
root 0.136292 15.7063 -6.35443 336.507 -27.1654 -358.356
lowerback 23.2067 1.27636 -1.34057
upperback 10.3477 1.14291 0.0529104
thorax -1.62891 0.425367 0.549805
lowerneck -11.1747 2.41872 -4.09722
upperneck 28.4594 3.44773 2.7278
head 10.8689 1.39327 2.1062
rclavicle 3.2787e-014 -3.57812e-015
rhumerus -32.2138 66.8072 -63.7
rradius 99.4451
rwrist 36.8502
rhand -32.3522 22.9727
rfingers 7.12502
rthumb -5.58876 -6.93361
lclavicle 3.2787e-014 -3.57812e-015
lhumerus -30.4795 -78.131 63.1561
lradius 95.2599
lwrist -20.3084
lhand -26.9549 13.9834
lfingers 7.12502
lthumb -0.376573 43.9628
rfemur -33.3895 -4.68072 5.17155
rtibia 75.9911
rfoot -0.0882629 -2.92299
rtoes -5.40225
lfemur -32.0102 7.89943 -7.88023
ltibia 70.2717
lfoot 11.1409 -12.134
ltoes -1.22993
580
root 0.136657 15.7109 -6.34489 336.585 -27.2921 -358.242
lowerback 22.8816 1.32726 -1.36384
upperback 10.3212 1.20995 -0.0124332
thorax -1.49906 0.460523 0.481437
lowerneck -11.0604 2.46844 -4.02322
upperneck 28.6901 3.5007 2.70239
head 10.9332 1.41629 2.09367
rclavicle 1.94871e-014 1.28216e-014
rhumerus -33.1593 67.2727 -64.2965
rradius 99.6286
rwrist 37.2162
rhand -32.7514 23.2509
rfingers 7.12502
rthumb -5.97416 -6.64483
lclavicle 1.94871e-014 1.28216e-014
lhumerus -31.304 -78.3238 63.6697
lradius 95.431
lwrist -20.8553
lhand -26.4251 11.543
lfingers 7.12502
lthumb 0.135205 41.5227
rfemur -33.6177 -4.60302 5.11024
rtibia 76.0463
rfoot 0.058271 -2.95665
rtoes -5.47368
lfemur -32.068 7.97643 -7.97718
ltibia 70.3137
lfoot 11.032 -12.0147
ltoes -1.12085
581
root 0.136799 15.7097 -6.34458 336.54 -27.2801 -358.272
lowerback 22.8819 1.32809 -1.30901
upperback 10.3387 1.22011 -0.0624944
thorax -1.47825 0.468323 0.394506
lowerneck -10.9478 2.49942 -3.95978
upperneck 28.8505 3.519 2.71586
head 10.9716 1.42882 2.0912
rclavicle -2.26863e-014 3.49861e-014
rhumerus -34.1945 67.6622 -65.03
rradius 99.799
rwrist 37.7592
rhand -33.3447 23.4646
rfingers 7.12502
rthumb -6.54702 -6.41416
lclavicle -2.26863e-014 3.49861e-014
lhumerus -31.6065 -78.6353 63.6682
lradius 95.6449
lwrist -21.5582
lhand -25.3935 7.02658
lfingers 7.12502
lthumb 1.13156 37.0033
rfemur -33.6276 -4.61018 5.13529
rtibia 76.1162
rfoot 0.14714 -3.03464
rtoes -5.90347
lfemur -31.9985 7.93426 -7.9637
ltibia 70.3554
lfoot 10.9256 -12.0381
ltoes -1.32209
582
root 0.137271 15.7086 -6.34534 336.541 -27.3199 -358.331
lowerback 22.8629 1.32406 -1.23015
upperback 10.3548 1.2294 -0.101917
thorax -1.44915 0.476097 0.305808
lowerneck -10.883 2.51138 -3.91119
upperneck 28.9835 3.52811 2.68832
head 11.0106 1.43131 2.07571
rclavicle 4.2894e-015 -6.80837e-015
rhumerus -35.0994 68.0757 -65.7466
rradius 99.8731
rwrist 38.4907
rhand -33.8773 23.0072
rfingers 7.12502
rthumb -7.06112 -6.85499
lclavicle 4.2894e-015 -6.80837e-015
lhumerus -32.42 -79.0593 64.2338
lradius 95.8214
lwrist -22.2094
lhand -25.9754 9.73805
lfingers 7.12502
lthumb 0.569518 39.717
rfemur -33.6774 -4.5797 5.21275
rtibia 76.1872
rfoot 0.258539 -3.04943
rtoes -6.55046
lfemur -31.9715 7.94761 -7.9012
ltibia 70.3956
lfoot 10.832 -12.0636
ltoes -1.74577
583
root 0.137852 15.7098 -6.34602 336.484 -27.2992 -358.316
lowerback 22.8835 1.31512 -1.25695
upperback 10.3699 1.21014 -0.135829
thorax -1.4422 0.46609 0.289107
lowerneck -10.8463 2.5345 -3.93003
upperneck 29.1958 3.56146 2.68846
head 11.0826 1.43895 2.08726
rclavicle -2.15014e-014 1.57288e-014
rhumerus -35.8407 68.5216 -66.3628
rradius 99.9486
rwrist 38.9487
rhand -34.1337 23.1131
rfingers 7.12502
rthumb -7.30863 -6.74067
lclavicle -2.15014e-014 1.57288e-014
lhumerus -33.8502 -79.4561 65.4872
lradius 95.9326
lwrist -22.8831
lhand -26.2938 11.6994
lfingers 7.12502
lthumb 0.262002 41.679
rfemur -33.6426 -4.57941 5.16733
rtibia 76.2414
rfoot 0.405167 -2.93589
rtoes -6.3658
lfemur -31.9151 7.91705 -7.9365
ltibia 70.4142
lfoot 10.721 -12.0929
ltoes -2.1395
584
root 0.138379 15.7112 -6.34476 336.439 -27.2875 -358.338
lowerback 22.904 1.29814 -1.26856
upperback 10.3677 1.18555 -0.127677
thorax -1.45472 0.453171 0.309866
lowerneck -10.639 2.58313 -4.079
upperneck 29.3427 3.63063 2.76158
head 11.0891 1.45871 2.1464
rclavicle 5.15023e-014 -4.07509e-015
rhumerus -36.7189 69.0396 -67.0563
rradius 100.083
rwrist 39.0426
rhand -34.3916 23.9247
rfingers 7.12502
rthumb -7.55757 -5.92032
lclavicle 5.15023e-014 -4.07509e-015
lhumerus -35.2306 -79.7472 66.811
lradius 95.9916
lwrist -23.332
lhand -26.4248 12.3766
lfingers 7.12502
lthumb 0.135418 42.3563
rfemur -33.5936 -4.57476 5.14681
rtibia 76.271
rfoot 0.601597 -2.81108
rtoes -5.53934
lfemur -31.8626 7.90273 -7.94109
ltibia 70.437
lfoot 10.5675 -12.2369
ltoes -3.0751
585
root 0.138881 15.7118 -6.34392 336.412 -27.3121 -358.373
lowerback 22.9287 1.29402 -1.26294
upperback 10.3501 1.18173 -0.106443
thorax -1.48639 0.451133 0.329773
lowerneck -10.4379 2.64141 -4.16481
upperneck 29.4748 3.71831 2.76985
head 11.0936 1.48625 2.17305
rclavicle -7.048e-014 -1.48716e-014
rhumerus -37.7019 69.5259 -67.8598
rradius 100.182
rwrist 39.354
rhand -34.7173 24.1842
rfingers 7.12502
rthumb -7.87197 -5.64929
lclavicle -7.048e-014 -1.48716e-014
lhumerus -36.4278 -80.0632 68.0323
lradius 95.926
lwrist -23.3086
lhand -26.9539 12.4974
lfingers 7.12502
lthumb -0.375583 42.4769
rfemur -33.5829 -4.56209 5.16493
rtibia 76.2881
rfoot 0.773735 -2.78207
rtoes -5.12878
lfemur -31.8312 7.92472 -7.92395
ltibia 70.4814
lfoot 10.3577 -12.4111
ltoes -4.42648
586
root 0.139485 15.7103 -6.34415 336.395 -27.2922 -358.353
lowerback 22.8951 1.30616 -1.28678
upperback 10.3533 1.19295 -0.123944
thorax -1.46659 0.456484 0.322473
lowerneck -10.3694 2.66489 -4.11332
upperneck 29.7003 3.75286 2.70837
head 11.168 1.49412 2.15002
rclavicle -5.72484e-014 2.55997e-014
rhumerus -38.6075 69.8228 -68.6414
rradius 100.265
rwrist 39.9254
rhand -34.9169 24.5314
rfingers 7.12502
rthumb -8.0646 -5.29474
lclavicle -5.72484e-014 2.55997e-014
lhumerus -37.7184 -80.3771 69.3755
lradius 95.6426
lwrist -23.5689
lhand -27.5393 15.001
lfingers 7.12502
lthumb -0.940987 44.9787
rfemur -33.6241 -4.60001 5.12164
rtibia 76.3106
rfoot 0.879261 -2.84425
rtoes -4.79625
lfemur -31.8476 7.9006 -7.98033
ltibia 70.5419
lfoot 10.2024 -12.4197
ltoes -4.9974
587
root 0.140075 15.7079 -6.34508 336.482 -27.2841 -358.44
lowerback 22.7763 1.312 -1.1769
upperback 10.3773 1.22509 -0.143981
thorax -1.3802 0.476555 0.233118
lowerneck -10.2922 2.6513 -4.02952
upperneck 29.9168 3.72261 2.6614
head 11.2404 1.47824 2.11857
rclavicle -8.11554e-014 1.82571e-014
rhumerus -39.5813 70.0197 -69.5544
rradius 100.322
rwrist 40.3685
rhand -35.1085 24.9944
rfingers 7.12502
rthumb -8.24944 -4.82454
lclavicle -8.11554e-014 1.82571e-014
lhumerus -38.8666 -80.5514 70.6173
lradius 95.331
lwrist -24.3601
lhand -27.6909 13.7645
lfingers 7.12502
lthumb -1.08741 43.7415
rfemur -33.7301 -4.61962 5.18886
rtibia 76.3451
rfoot 0.971884 -2.97018
rtoes -4.20739
lfemur -31.947 7.85024 -7.92516
ltibia 70.594
lfoot 10.2511 -12.2436
ltoes -4.43045
588
root 0.140819 15.7067 -6.34594 336.553 -27.2853 -358.529
lowerback 22.7011 1.30607 -1.07048
upperback 10.3985 1.23967 -0.167177
thorax -1.31779 0.487798 0.145875
lowerneck -10.2921 2.68409 -3.89473
upperneck 30.155 3.76106 2.58351
head 11.3365 1.49503 2.07748
rclavicle -4.56832e-014 -1.04362e-014
rhumerus -40.4948 70.3048 -70.5307
rradius 100.266
rwrist 40.7157
rhand -35.5284 25.2325
rfingers 7.12502
rthumb -8.65473 -4.57009
lclavicle -4.56832e-014 -1.04362e-014
lhumerus -39.4289 -80.6599 71.3136
lradius 95.1226
lwrist -24.8113
lhand -27.4338 11.2926
lfingers 7.12502
lthumb -0.839069 41.2707
rfemur -33.8106 -4.61888 5.25011
rtibia 76.3998
rfoot 1.09719 -3.04263
rtoes -3.86815
lfemur -32.0277 7.81693 -7.8606
ltibia 70.6339
lfoot 10.3276 -12.1026
ltoes -3.87331
589
root 0.14109 15.7041 -6.34503 336.5 -27.2749 -358.464
lowerback 22.7329 1.31426 -1.12788
upperback 10.3868 1.2365 -0.210653
thorax -1.34616 0.485552 0.132128
lowerneck -10.2448 2.74359 -3.86576
upperneck 30.4026 3.83398 2.58904
head 11.4208 1.52528 2.08831
rclavicle -7.43237e-014 9.64106e-015
rhumerus -41.3522 70.6635 -71.5236
rradius 100.14
rwrist 41.0388
rhand -36.0524 25.7528
rfingers 7.12502
rthumb -9.16034 -4.02826
lclavicle -7.43237e-014 9.64106e-015
lhumerus -41.2785 -81.0378 73.2863
lradius 95.1354
lwrist -25.061
lhand -27.1081 11.7169
lfingers 7.12502
lthumb -0.524502 41.696
rfemur -33.85 -4.62627 5.15834
rtibia 76.4819
rfoot 1.27024 -2.9745
rtoes -4.39398
lfemur -32.0011 7.81378 -7.938
ltibia 70.6476
lfoot 10.3405 -11.9902
ltoes -3.45102
590
root 0.140821 15.6986 -6.3449 336.448 -27.2696 -358.407
lowerback 22.7792 1.32378 -1.17739
upperback 10.3837 1.23618 -0.24939
thorax -1.37229 0.484679 0.118152
lowerneck -10.0856 2.77565 -3.9486
upperneck 30.5364 3.85924 2.68615
head 11.4348 1.53526 2.14074
rclavicle -6.63754e-014 1.25234e-014
rhumerus -42.0582 70.9971 -72.4196
rradius 99.9682
rwrist 41.1995
rhand -36.3094 26.2504
rfingers 7.12502
rthumb -9.40833 -3.51962
lclavicle -6.63754e-014 1.25234e-014
lhumerus -42.7369 -81.3311 74.9058
lradius 95.0062
lwrist -25.2683
lhand -26.9915 11.9107
lfingers 7.12502
lthumb -0.411842 41.89
rfemur -33.9184 -4.63284 5.09162
rtibia 76.589
rfoot 1.4219 -2.88335
rtoes -5.13509
lfemur -31.9832 7.82394 -7.99376
ltibia 70.6543
lfoot 10.3614 -11.8523
ltoes -2.94575
591
root 0.144716 15.6961 -6.34552 336.333 -27.0311 -357.92
lowerback 22.6846 1.35357 -1.60749
upperback 10.3905 1.18537 -0.403596
thorax -1.32187 0.44942 0.21086
lowerneck -10.0598 2.75744 -3.94442
upperneck 30.7301 3.84462 2.63342
head 11.508 1.51717 2.12319
rclavicle -7.46064e-015 -1.67476e-014
rhumerus -42.5225 71.3201 -73.1145
rradius 99.7505
rwrist 41.276
rhand -36.4485 26.3789
rfingers 7.12502
rthumb -9.5426 -3.38504
lclavicle -7.46064e-015 -1.67476e-014
lhumerus -43.6306 -81.5127 76.0427
lradius 94.7763
lwrist -25.3877
lhand -26.9575 11.8289
lfingers 7.12502
lthumb -0.379074 41.8083
rfemur -34.1293 -4.82657 4.46942
rtibia 76.7252
rfoot 1.59991 -2.70502
rtoes -5.12649
lfemur -32.1108 7.70743 -8.62401
ltibia 70.6442
lfoot 10.2585 -11.6822
ltoes -3.1681
592
root 0.152279 15.6952 -6.34428 336.121 -26.6042 -357.05
lowerback 22.5412 1.40799 -2.38032
upperback 10.3567 1.09826 -0.652037
thorax -1.29267 0.388106 0.405901
lowerneck -10.1091 2.70188 -3.92251
upperneck 31.0592 3.79343 2.52247
head 11.6544 1.47379 2.0818
rclavicle -1.66793e-014 -7.40473e-015
rhumerus -43.2337 71.6409 -74.0533
rradius 99.5251
rwrist 41.486
rhand -36.8293 26.1684
rfingers 7.12502
rthumb -9.90996 -3.57836
lclavicle -1.66793e-014 -7.40473e-015
lhumerus -45.1073 -81.7044 77.8017
lradius 94.4946
lwrist -25.661
lhand -27.237 12.3626
lfingers 7.12502
lthumb -0.64902 42.3413
rfemur -34.3974 -5.19113 3.35104
rtibia 76.8618
rfoot 1.82112 -2.44634
rtoes -4.70226
lfemur -32.2883 7.47267 -9.75029
ltibia 70.6141
lfoot 10.0988 -11.4206
ltoes -3.40818
593
root 0.156258 15.6926 -6.34306 336.18 -26.6043 -357.097
lowerback 22.5018 1.38796 -2.29584
upperback 10.3567 1.09063 -0.659272
thorax -1.27196 0.387317 0.352571
lowerneck -10.041 2.72849 -3.96987
upperneck 31.2255 3.82638 2.55912
head 11.7029 1.48304 2.11012
rclavicle 1.31074e-015 -2.88238e-015
rhumerus -44.0464 71.8873 -75.1152
rradius 99.3036
rwrist 41.7723
rhand -37.0878 26.0095
rfingers 7.12502
rthumb -10.1593 -3.72526
lclavicle 1.31074e-015 -2.88238e-015
lhumerus -46.7644 -81.9354 79.7507
lradius 94.1898
lwrist -25.9263
lhand -27.5642 12.8533
lfingers 7.12502
lthumb -0.965038 42.8308
rfemur -34.4737 -5.2537 3.34683
rtibia 76.912
rfoot 1.92114 -2.4576
rtoes -4.17864
lfemur -32.3723 7.44813 -9.74232
ltibia 70.6728
lfoot 10.0782 -11.3983
ltoes -3.63782
